<svg width="23" height="21" viewBox="0 0 23 21" fill="none" xmlns="http://www.w3.org/2000/svg">
<path fill-rule="evenodd" clip-rule="evenodd" d="M13.9131 0.495075C14.702 0.168228 15.5474 0 16.4013 0C17.2551 0 18.1006 0.168229 18.8894 0.495075C19.6781 0.821861 20.3947 1.30081 20.9982 1.90455C21.602 2.5081 22.0813 3.22501 22.408 4.01368C22.7349 4.80249 22.9031 5.64797 22.9031 6.50183C22.9031 7.35568 22.7349 8.20116 22.408 8.98997C22.0812 9.77872 21.6022 10.4953 20.9984 11.0989L12.1584 19.9389C11.7679 20.3295 11.1347 20.3295 10.7442 19.9389L1.90418 11.0989C0.684956 9.8797 0 8.22607 0 6.50183C0 4.77758 0.684956 3.12395 1.90418 1.90472C3.12341 0.68549 4.77704 0.000534773 6.50129 0.000534773C8.22554 0.000534773 9.87917 0.68549 11.0984 1.90472L11.4513 2.25761L11.804 1.90489C12.4076 1.30106 13.1244 0.821892 13.9131 0.495075Z" fill="#18CA75"/>
</svg>
